<svg width="309" height="100" viewBox="0 0 309 100" fill="none" xmlns="http://www.w3.org/2000/svg">
<rect width="309" height="100" rx="10" fill="#414141"/>
<path d="M91.2188 54.7031L84.7344 74H80.1875L88.6875 51.25H91.5938L91.2188 54.7031ZM96.6406 74L90.125 54.7031L89.7344 51.25H92.6562L101.203 74H96.6406ZM96.3438 65.5469V68.9375H84.1406V65.5469H96.3438ZM106.953 60.3438V80.5H102.812V57.0938H106.641L106.953 60.3438ZM117.812 65.375V65.7031C117.812 66.9323 117.667 68.0729 117.375 69.125C117.094 70.1667 116.677 71.0781 116.125 71.8594C115.573 72.6302 114.885 73.2344 114.062 73.6719C113.25 74.099 112.312 74.3125 111.25 74.3125C110.208 74.3125 109.302 74.1146 108.531 73.7188C107.76 73.3125 107.109 72.7396 106.578 72C106.047 71.2604 105.62 70.401 105.297 69.4219C104.984 68.4323 104.75 67.3542 104.594 66.1875V65.1406C104.75 63.901 104.984 62.776 105.297 61.7656C105.62 60.7448 106.047 59.8646 106.578 59.125C107.109 58.375 107.755 57.7969 108.516 57.3906C109.286 56.9844 110.188 56.7812 111.219 56.7812C112.292 56.7812 113.234 56.9844 114.047 57.3906C114.87 57.7969 115.562 58.3802 116.125 59.1406C116.688 59.901 117.109 60.8073 117.391 61.8594C117.672 62.9115 117.812 64.0833 117.812 65.375ZM113.672 65.7031V65.375C113.672 64.625 113.604 63.9323 113.469 63.2969C113.333 62.651 113.125 62.0885 112.844 61.6094C112.562 61.1198 112.198 60.7396 111.75 60.4688C111.302 60.1979 110.76 60.0625 110.125 60.0625C109.49 60.0625 108.943 60.1667 108.484 60.375C108.026 60.5833 107.651 60.8802 107.359 61.2656C107.068 61.651 106.839 62.1094 106.672 62.6406C106.516 63.1615 106.411 63.7396 106.359 64.375V66.9688C106.453 67.7396 106.635 68.4323 106.906 69.0469C107.177 69.6615 107.573 70.151 108.094 70.5156C108.625 70.8802 109.312 71.0625 110.156 71.0625C110.792 71.0625 111.333 70.9219 111.781 70.6406C112.229 70.3594 112.594 69.974 112.875 69.4844C113.156 68.9844 113.359 68.4115 113.484 67.7656C113.609 67.1198 113.672 66.4323 113.672 65.7031ZM124.953 60.3438V80.5H120.812V57.0938H124.641L124.953 60.3438ZM135.812 65.375V65.7031C135.812 66.9323 135.667 68.0729 135.375 69.125C135.094 70.1667 134.677 71.0781 134.125 71.8594C133.573 72.6302 132.885 73.2344 132.062 73.6719C131.25 74.099 130.312 74.3125 129.25 74.3125C128.208 74.3125 127.302 74.1146 126.531 73.7188C125.76 73.3125 125.109 72.7396 124.578 72C124.047 71.2604 123.62 70.401 123.297 69.4219C122.984 68.4323 122.75 67.3542 122.594 66.1875V65.1406C122.75 63.901 122.984 62.776 123.297 61.7656C123.62 60.7448 124.047 59.8646 124.578 59.125C125.109 58.375 125.755 57.7969 126.516 57.3906C127.286 56.9844 128.188 56.7812 129.219 56.7812C130.292 56.7812 131.234 56.9844 132.047 57.3906C132.87 57.7969 133.562 58.3802 134.125 59.1406C134.688 59.901 135.109 60.8073 135.391 61.8594C135.672 62.9115 135.812 64.0833 135.812 65.375ZM131.672 65.7031V65.375C131.672 64.625 131.604 63.9323 131.469 63.2969C131.333 62.651 131.125 62.0885 130.844 61.6094C130.562 61.1198 130.198 60.7396 129.75 60.4688C129.302 60.1979 128.76 60.0625 128.125 60.0625C127.49 60.0625 126.943 60.1667 126.484 60.375C126.026 60.5833 125.651 60.8802 125.359 61.2656C125.068 61.651 124.839 62.1094 124.672 62.6406C124.516 63.1615 124.411 63.7396 124.359 64.375V66.9688C124.453 67.7396 124.635 68.4323 124.906 69.0469C125.177 69.6615 125.573 70.151 126.094 70.5156C126.625 70.8802 127.312 71.0625 128.156 71.0625C128.792 71.0625 129.333 70.9219 129.781 70.6406C130.229 70.3594 130.594 69.974 130.875 69.4844C131.156 68.9844 131.359 68.4115 131.484 67.7656C131.609 67.1198 131.672 66.4323 131.672 65.7031ZM159.016 68.0938C159.016 67.6562 158.948 67.2656 158.812 66.9219C158.688 66.5677 158.453 66.25 158.109 65.9688C157.776 65.6771 157.302 65.3958 156.688 65.125C156.083 64.8438 155.302 64.5521 154.344 64.25C153.281 63.9167 152.292 63.5417 151.375 63.125C150.458 62.7083 149.651 62.224 148.953 61.6719C148.266 61.1198 147.729 60.4844 147.344 59.7656C146.958 59.0365 146.766 58.1927 146.766 57.2344C146.766 56.2969 146.964 55.4427 147.359 54.6719C147.766 53.901 148.339 53.2396 149.078 52.6875C149.818 52.125 150.688 51.6927 151.688 51.3906C152.698 51.0885 153.812 50.9375 155.031 50.9375C156.719 50.9375 158.177 51.2448 159.406 51.8594C160.646 52.474 161.604 53.3073 162.281 54.3594C162.958 55.4115 163.297 56.5938 163.297 57.9062H159.016C159.016 57.1979 158.865 56.5729 158.562 56.0312C158.271 55.4896 157.823 55.0625 157.219 54.75C156.625 54.4375 155.875 54.2812 154.969 54.2812C154.094 54.2812 153.365 54.4115 152.781 54.6719C152.208 54.9323 151.776 55.2865 151.484 55.7344C151.203 56.1823 151.062 56.6823 151.062 57.2344C151.062 57.651 151.161 58.026 151.359 58.3594C151.557 58.6823 151.854 58.9896 152.25 59.2812C152.646 59.5625 153.135 59.8281 153.719 60.0781C154.312 60.3177 155 60.5573 155.781 60.7969C157.031 61.1719 158.125 61.5885 159.062 62.0469C160.01 62.5052 160.797 63.026 161.422 63.6094C162.057 64.1927 162.531 64.849 162.844 65.5781C163.167 66.3073 163.328 67.1354 163.328 68.0625C163.328 69.0417 163.135 69.9167 162.75 70.6875C162.365 71.4583 161.812 72.1146 161.094 72.6562C160.375 73.1979 159.51 73.6094 158.5 73.8906C157.5 74.1719 156.38 74.3125 155.141 74.3125C154.036 74.3125 152.943 74.1667 151.859 73.875C150.786 73.5729 149.812 73.125 148.938 72.5312C148.062 71.9271 147.365 71.1667 146.844 70.25C146.323 69.3229 146.062 68.2396 146.062 67H150.375C150.375 67.7188 150.49 68.3333 150.719 68.8438C150.958 69.3438 151.292 69.7552 151.719 70.0781C152.156 70.3906 152.667 70.6198 153.25 70.7656C153.833 70.9115 154.464 70.9844 155.141 70.9844C156.016 70.9844 156.734 70.8646 157.297 70.625C157.87 70.375 158.297 70.0312 158.578 69.5938C158.87 69.1562 159.016 68.6562 159.016 68.0938ZM174.328 57.0938V60.0625H164.641V57.0938H174.328ZM167.234 52.9375H171.375V69.125C171.375 69.625 171.443 70.0104 171.578 70.2812C171.714 70.5521 171.917 70.7344 172.188 70.8281C172.458 70.9219 172.781 70.9688 173.156 70.9688C173.427 70.9688 173.677 70.9531 173.906 70.9219C174.135 70.8906 174.328 70.8594 174.484 70.8281L174.5 73.9219C174.156 74.0365 173.766 74.1302 173.328 74.2031C172.901 74.276 172.417 74.3125 171.875 74.3125C170.948 74.3125 170.135 74.1562 169.438 73.8438C168.74 73.5208 168.198 73.0052 167.812 72.2969C167.427 71.5781 167.234 70.6302 167.234 69.4531V52.9375ZM175.938 65.7188V65.3906C175.938 64.151 176.115 63.0104 176.469 61.9688C176.823 60.9167 177.339 60.0052 178.016 59.2344C178.693 58.4635 179.521 57.8646 180.5 57.4375C181.479 57 182.594 56.7812 183.844 56.7812C185.115 56.7812 186.24 57 187.219 57.4375C188.208 57.8646 189.042 58.4635 189.719 59.2344C190.396 60.0052 190.911 60.9167 191.266 61.9688C191.62 63.0104 191.797 64.151 191.797 65.3906V65.7188C191.797 66.9479 191.62 68.0885 191.266 69.1406C190.911 70.1823 190.396 71.0938 189.719 71.875C189.042 72.6458 188.214 73.2448 187.234 73.6719C186.255 74.099 185.135 74.3125 183.875 74.3125C182.625 74.3125 181.505 74.099 180.516 73.6719C179.526 73.2448 178.693 72.6458 178.016 71.875C177.339 71.0938 176.823 70.1823 176.469 69.1406C176.115 68.0885 175.938 66.9479 175.938 65.7188ZM180.062 65.3906V65.7188C180.062 66.4583 180.135 67.151 180.281 67.7969C180.427 68.4427 180.651 69.0104 180.953 69.5C181.255 69.9896 181.646 70.375 182.125 70.6562C182.615 70.9271 183.198 71.0625 183.875 71.0625C184.542 71.0625 185.115 70.9271 185.594 70.6562C186.073 70.375 186.464 69.9896 186.766 69.5C187.078 69.0104 187.307 68.4427 187.453 67.7969C187.599 67.151 187.672 66.4583 187.672 65.7188V65.3906C187.672 64.6615 187.599 63.9792 187.453 63.3438C187.307 62.6979 187.078 62.1302 186.766 61.6406C186.464 61.1406 186.068 60.75 185.578 60.4688C185.099 60.1771 184.521 60.0312 183.844 60.0312C183.177 60.0312 182.604 60.1771 182.125 60.4688C181.646 60.75 181.255 61.1406 180.953 61.6406C180.651 62.1302 180.427 62.6979 180.281 63.3438C180.135 63.9792 180.062 64.6615 180.062 65.3906ZM198.922 60.5469V74H194.797V57.0938H198.703L198.922 60.5469ZM204.062 56.9844L204 60.8281C203.771 60.7865 203.51 60.7552 203.219 60.7344C202.938 60.7135 202.672 60.7031 202.422 60.7031C201.786 60.7031 201.229 60.7917 200.75 60.9688C200.271 61.1354 199.87 61.3802 199.547 61.7031C199.234 62.026 198.995 62.4219 198.828 62.8906C198.661 63.349 198.568 63.8698 198.547 64.4531L197.656 64.3438C197.656 63.2708 197.766 62.276 197.984 61.3594C198.203 60.4427 198.521 59.6406 198.938 58.9531C199.354 58.2656 199.875 57.7344 200.5 57.3594C201.135 56.974 201.865 56.7812 202.688 56.7812C202.917 56.7812 203.161 56.8021 203.422 56.8438C203.693 56.875 203.906 56.9219 204.062 56.9844ZM213.609 74.3125C212.328 74.3125 211.177 74.1042 210.156 73.6875C209.135 73.2708 208.266 72.6927 207.547 71.9531C206.839 71.2031 206.292 70.3333 205.906 69.3438C205.531 68.3438 205.344 67.2708 205.344 66.125V65.5C205.344 64.1979 205.531 63.0156 205.906 61.9531C206.281 60.8802 206.812 59.9583 207.5 59.1875C208.188 58.4167 209.01 57.8229 209.969 57.4062C210.927 56.9896 211.984 56.7812 213.141 56.7812C214.339 56.7812 215.396 56.9844 216.312 57.3906C217.229 57.7865 217.995 58.349 218.609 59.0781C219.224 59.8073 219.688 60.6823 220 61.7031C220.312 62.7135 220.469 63.8333 220.469 65.0625V66.7969H207.219V63.9531H216.406V63.6406C216.385 62.9844 216.26 62.3854 216.031 61.8438C215.802 61.2917 215.448 60.8542 214.969 60.5312C214.49 60.1979 213.87 60.0312 213.109 60.0312C212.495 60.0312 211.958 60.1667 211.5 60.4375C211.052 60.6979 210.677 61.0729 210.375 61.5625C210.083 62.0417 209.865 62.6146 209.719 63.2812C209.573 63.9479 209.5 64.6875 209.5 65.5V66.125C209.5 66.8333 209.594 67.4896 209.781 68.0938C209.979 68.6979 210.266 69.224 210.641 69.6719C211.026 70.1094 211.484 70.4531 212.016 70.7031C212.557 70.9427 213.172 71.0625 213.859 71.0625C214.724 71.0625 215.505 70.8958 216.203 70.5625C216.911 70.2188 217.526 69.7135 218.047 69.0469L220.125 71.2031C219.771 71.724 219.292 72.224 218.688 72.7031C218.094 73.1823 217.375 73.5729 216.531 73.875C215.688 74.1667 214.714 74.3125 213.609 74.3125Z" fill="#F8F8F8"/>
<path d="M85.6055 35H82.5391L82.5586 32.8906H85.6055C86.4323 32.8906 87.1257 32.7083 87.6855 32.3438C88.2454 31.9727 88.6686 31.4421 88.9551 30.752C89.2415 30.0553 89.3848 29.222 89.3848 28.252V27.5195C89.3848 26.7708 89.3034 26.11 89.1406 25.5371C88.9779 24.9642 88.737 24.4824 88.418 24.0918C88.1055 23.7012 87.7181 23.4049 87.2559 23.2031C86.7936 23.0013 86.263 22.9004 85.6641 22.9004H82.4805V20.7812H85.6641C86.6146 20.7812 87.4805 20.9408 88.2617 21.2598C89.0495 21.5788 89.7298 22.0378 90.3027 22.6367C90.8822 23.2292 91.3249 23.9388 91.6309 24.7656C91.9434 25.5924 92.0996 26.5169 92.0996 27.5391V28.252C92.0996 29.2676 91.9434 30.1921 91.6309 31.0254C91.3249 31.8522 90.8822 32.5618 90.3027 33.1543C89.7298 33.7467 89.0462 34.2025 88.252 34.5215C87.4577 34.8405 86.5755 35 85.6055 35ZM84.043 20.7812V35H81.3574V20.7812H84.043ZM93.7305 29.8242V29.6191C93.7305 28.8444 93.8411 28.1315 94.0625 27.4805C94.2839 26.8229 94.6061 26.2533 95.0293 25.7715C95.4525 25.2897 95.9701 24.9154 96.582 24.6484C97.194 24.375 97.8906 24.2383 98.6719 24.2383C99.4661 24.2383 100.169 24.375 100.781 24.6484C101.4 24.9154 101.921 25.2897 102.344 25.7715C102.767 26.2533 103.089 26.8229 103.311 27.4805C103.532 28.1315 103.643 28.8444 103.643 29.6191V29.8242C103.643 30.5924 103.532 31.3053 103.311 31.9629C103.089 32.6139 102.767 33.1836 102.344 33.6719C101.921 34.1536 101.403 34.528 100.791 34.7949C100.179 35.0618 99.4792 35.1953 98.6914 35.1953C97.9102 35.1953 97.2103 35.0618 96.5918 34.7949C95.9733 34.528 95.4525 34.1536 95.0293 33.6719C94.6061 33.1836 94.2839 32.6139 94.0625 31.9629C93.8411 31.3053 93.7305 30.5924 93.7305 29.8242ZM96.3086 29.6191V29.8242C96.3086 30.2865 96.3542 30.7194 96.4453 31.123C96.5365 31.5267 96.6764 31.8815 96.8652 32.1875C97.054 32.4935 97.2982 32.7344 97.5977 32.9102C97.9036 33.0794 98.2682 33.1641 98.6914 33.1641C99.1081 33.1641 99.4661 33.0794 99.7656 32.9102C100.065 32.7344 100.309 32.4935 100.498 32.1875C100.693 31.8815 100.837 31.5267 100.928 31.123C101.019 30.7194 101.064 30.2865 101.064 29.8242V29.6191C101.064 29.1634 101.019 28.737 100.928 28.3398C100.837 27.9362 100.693 27.5814 100.498 27.2754C100.309 26.9629 100.062 26.7188 99.7559 26.543C99.4564 26.3607 99.0951 26.2695 98.6719 26.2695C98.2552 26.2695 97.8971 26.3607 97.5977 26.543C97.2982 26.7188 97.054 26.9629 96.8652 27.2754C96.6764 27.5814 96.5365 27.9362 96.4453 28.3398C96.3542 28.737 96.3086 29.1634 96.3086 29.6191ZM108.457 32.4609L110.771 24.4336H112.412L111.924 27.207L109.59 35H108.174L108.457 32.4609ZM107.178 24.4336L108.916 32.4805L109.072 35H107.441L104.668 24.4336H107.178ZM114.561 32.3633L116.26 24.4336H118.76L116.006 35H114.375L114.561 32.3633ZM112.666 24.4336L114.961 32.3828L115.264 35H113.848L111.494 27.207L111.016 24.4336H112.666ZM122.812 26.6895V35H120.234V24.4336H122.656L122.812 26.6895ZM122.402 29.3359H121.641C121.647 28.5677 121.751 27.8711 121.953 27.2461C122.155 26.6211 122.438 26.084 122.803 25.6348C123.174 25.1855 123.613 24.8405 124.121 24.5996C124.629 24.3587 125.195 24.2383 125.82 24.2383C126.328 24.2383 126.787 24.3099 127.197 24.4531C127.607 24.5964 127.959 24.8242 128.252 25.1367C128.551 25.4492 128.779 25.8594 128.936 26.3672C129.098 26.8685 129.18 27.487 129.18 28.2227V35H126.582V28.2031C126.582 27.7214 126.51 27.3405 126.367 27.0605C126.23 26.7806 126.029 26.582 125.762 26.4648C125.501 26.3477 125.179 26.2891 124.795 26.2891C124.398 26.2891 124.049 26.3704 123.75 26.5332C123.457 26.6895 123.21 26.9076 123.008 27.1875C122.812 27.4674 122.663 27.7897 122.559 28.1543C122.454 28.5189 122.402 28.9128 122.402 29.3359ZM134.189 20V35H131.602V20H134.189ZM136.191 29.8242V29.6191C136.191 28.8444 136.302 28.1315 136.523 27.4805C136.745 26.8229 137.067 26.2533 137.49 25.7715C137.913 25.2897 138.431 24.9154 139.043 24.6484C139.655 24.375 140.352 24.2383 141.133 24.2383C141.927 24.2383 142.63 24.375 143.242 24.6484C143.861 24.9154 144.382 25.2897 144.805 25.7715C145.228 26.2533 145.55 26.8229 145.771 27.4805C145.993 28.1315 146.104 28.8444 146.104 29.6191V29.8242C146.104 30.5924 145.993 31.3053 145.771 31.9629C145.55 32.6139 145.228 33.1836 144.805 33.6719C144.382 34.1536 143.864 34.528 143.252 34.7949C142.64 35.0618 141.94 35.1953 141.152 35.1953C140.371 35.1953 139.671 35.0618 139.053 34.7949C138.434 34.528 137.913 34.1536 137.49 33.6719C137.067 33.1836 136.745 32.6139 136.523 31.9629C136.302 31.3053 136.191 30.5924 136.191 29.8242ZM138.77 29.6191V29.8242C138.77 30.2865 138.815 30.7194 138.906 31.123C138.997 31.5267 139.137 31.8815 139.326 32.1875C139.515 32.4935 139.759 32.7344 140.059 32.9102C140.365 33.0794 140.729 33.1641 141.152 33.1641C141.569 33.1641 141.927 33.0794 142.227 32.9102C142.526 32.7344 142.77 32.4935 142.959 32.1875C143.154 31.8815 143.298 31.5267 143.389 31.123C143.48 30.7194 143.525 30.2865 143.525 29.8242V29.6191C143.525 29.1634 143.48 28.737 143.389 28.3398C143.298 27.9362 143.154 27.5814 142.959 27.2754C142.77 26.9629 142.523 26.7188 142.217 26.543C141.917 26.3607 141.556 26.2695 141.133 26.2695C140.716 26.2695 140.358 26.3607 140.059 26.543C139.759 26.7188 139.515 26.9629 139.326 27.2754C139.137 27.5814 138.997 27.9362 138.906 28.3398C138.815 28.737 138.77 29.1634 138.77 29.6191ZM153.799 32.7539V27.8809C153.799 27.5228 153.737 27.2135 153.613 26.9531C153.49 26.6927 153.301 26.4909 153.047 26.3477C152.793 26.2044 152.471 26.1328 152.08 26.1328C151.735 26.1328 151.432 26.1914 151.172 26.3086C150.918 26.4258 150.723 26.5918 150.586 26.8066C150.449 27.015 150.381 27.2559 150.381 27.5293H147.793C147.793 27.0931 147.897 26.6797 148.105 26.2891C148.314 25.8919 148.61 25.5404 148.994 25.2344C149.385 24.9219 149.85 24.6777 150.391 24.502C150.938 24.3262 151.549 24.2383 152.227 24.2383C153.027 24.2383 153.74 24.375 154.365 24.6484C154.997 24.9154 155.492 25.319 155.85 25.8594C156.214 26.3997 156.396 27.0801 156.396 27.9004V32.5098C156.396 33.0371 156.429 33.4896 156.494 33.8672C156.566 34.2383 156.67 34.5605 156.807 34.834V35H154.18C154.056 34.7331 153.962 34.3945 153.896 33.9844C153.831 33.5677 153.799 33.1576 153.799 32.7539ZM154.16 28.5645L154.18 30.0977H152.549C152.145 30.0977 151.79 30.14 151.484 30.2246C151.178 30.3027 150.928 30.4199 150.732 30.5762C150.537 30.7259 150.391 30.9082 150.293 31.123C150.195 31.3314 150.146 31.569 150.146 31.8359C150.146 32.0964 150.205 32.3307 150.322 32.5391C150.446 32.7474 150.622 32.9134 150.85 33.0371C151.084 33.1543 151.357 33.2129 151.67 33.2129C152.126 33.2129 152.523 33.1217 152.861 32.9395C153.2 32.7507 153.464 32.5228 153.652 32.2559C153.841 31.9889 153.942 31.735 153.955 31.4941L154.697 32.6074C154.606 32.8743 154.469 33.1576 154.287 33.457C154.105 33.7565 153.87 34.0365 153.584 34.2969C153.298 34.5573 152.952 34.7721 152.549 34.9414C152.145 35.1107 151.676 35.1953 151.143 35.1953C150.459 35.1953 149.847 35.0586 149.307 34.7852C148.766 34.5117 148.34 34.1374 148.027 33.6621C147.715 33.1868 147.559 32.6465 147.559 32.041C147.559 31.4811 147.663 30.9863 147.871 30.5566C148.079 30.127 148.389 29.7656 148.799 29.4727C149.209 29.1732 149.717 28.9486 150.322 28.7988C150.934 28.6426 151.634 28.5645 152.422 28.5645H154.16ZM165.059 32.7539V20H167.656V35H165.312L165.059 32.7539ZM158.271 29.8438V29.6387C158.271 28.8314 158.363 28.099 158.545 27.4414C158.734 26.7773 159.007 26.2077 159.365 25.7324C159.723 25.2572 160.156 24.8893 160.664 24.6289C161.178 24.3685 161.761 24.2383 162.412 24.2383C163.044 24.2383 163.594 24.3652 164.062 24.6191C164.538 24.873 164.941 25.2344 165.273 25.7031C165.612 26.1719 165.882 26.7285 166.084 27.373C166.286 28.0111 166.432 28.7142 166.523 29.4824V30.0391C166.432 30.7878 166.286 31.4746 166.084 32.0996C165.882 32.7246 165.612 33.2715 165.273 33.7402C164.941 34.2025 164.538 34.5605 164.062 34.8145C163.587 35.0684 163.031 35.1953 162.393 35.1953C161.748 35.1953 161.169 35.0618 160.654 34.7949C160.146 34.528 159.714 34.1536 159.355 33.6719C159.004 33.1901 158.734 32.6237 158.545 31.9727C158.363 31.3216 158.271 30.612 158.271 29.8438ZM160.859 29.6387V29.8438C160.859 30.2995 160.898 30.7259 160.977 31.123C161.055 31.5202 161.182 31.8717 161.357 32.1777C161.533 32.4772 161.758 32.7116 162.031 32.8809C162.311 33.0501 162.65 33.1348 163.047 33.1348C163.555 33.1348 163.971 33.0241 164.297 32.8027C164.629 32.5749 164.886 32.2656 165.068 31.875C165.251 31.4779 165.368 31.0319 165.42 30.5371V29.0039C165.394 28.6133 165.326 28.252 165.215 27.9199C165.111 27.5879 164.961 27.3014 164.766 27.0605C164.577 26.8197 164.342 26.6309 164.062 26.4941C163.783 26.3574 163.451 26.2891 163.066 26.2891C162.669 26.2891 162.331 26.377 162.051 26.5527C161.771 26.722 161.543 26.9596 161.367 27.2656C161.191 27.5716 161.061 27.9264 160.977 28.3301C160.898 28.7337 160.859 29.1699 160.859 29.6387ZM174.512 29.8242V29.6191C174.512 28.8444 174.622 28.1315 174.844 27.4805C175.065 26.8229 175.387 26.2533 175.811 25.7715C176.234 25.2897 176.751 24.9154 177.363 24.6484C177.975 24.375 178.672 24.2383 179.453 24.2383C180.247 24.2383 180.951 24.375 181.562 24.6484C182.181 24.9154 182.702 25.2897 183.125 25.7715C183.548 26.2533 183.87 26.8229 184.092 27.4805C184.313 28.1315 184.424 28.8444 184.424 29.6191V29.8242C184.424 30.5924 184.313 31.3053 184.092 31.9629C183.87 32.6139 183.548 33.1836 183.125 33.6719C182.702 34.1536 182.184 34.528 181.572 34.7949C180.96 35.0618 180.26 35.1953 179.473 35.1953C178.691 35.1953 177.992 35.0618 177.373 34.7949C176.755 34.528 176.234 34.1536 175.811 33.6719C175.387 33.1836 175.065 32.6139 174.844 31.9629C174.622 31.3053 174.512 30.5924 174.512 29.8242ZM177.09 29.6191V29.8242C177.09 30.2865 177.135 30.7194 177.227 31.123C177.318 31.5267 177.458 31.8815 177.646 32.1875C177.835 32.4935 178.079 32.7344 178.379 32.9102C178.685 33.0794 179.049 33.1641 179.473 33.1641C179.889 33.1641 180.247 33.0794 180.547 32.9102C180.846 32.7344 181.09 32.4935 181.279 32.1875C181.475 31.8815 181.618 31.5267 181.709 31.123C181.8 30.7194 181.846 30.2865 181.846 29.8242V29.6191C181.846 29.1634 181.8 28.737 181.709 28.3398C181.618 27.9362 181.475 27.5814 181.279 27.2754C181.09 26.9629 180.843 26.7188 180.537 26.543C180.238 26.3607 179.876 26.2695 179.453 26.2695C179.036 26.2695 178.678 26.3607 178.379 26.543C178.079 26.7188 177.835 26.9629 177.646 27.2754C177.458 27.5814 177.318 27.9362 177.227 28.3398C177.135 28.737 177.09 29.1634 177.09 29.6191ZM188.828 26.6895V35H186.25V24.4336H188.672L188.828 26.6895ZM188.418 29.3359H187.656C187.663 28.5677 187.767 27.8711 187.969 27.2461C188.171 26.6211 188.454 26.084 188.818 25.6348C189.189 25.1855 189.629 24.8405 190.137 24.5996C190.645 24.3587 191.211 24.2383 191.836 24.2383C192.344 24.2383 192.803 24.3099 193.213 24.4531C193.623 24.5964 193.975 24.8242 194.268 25.1367C194.567 25.4492 194.795 25.8594 194.951 26.3672C195.114 26.8685 195.195 27.487 195.195 28.2227V35H192.598V28.2031C192.598 27.7214 192.526 27.3405 192.383 27.0605C192.246 26.7806 192.044 26.582 191.777 26.4648C191.517 26.3477 191.195 26.2891 190.811 26.2891C190.413 26.2891 190.065 26.3704 189.766 26.5332C189.473 26.6895 189.225 26.9076 189.023 27.1875C188.828 27.4674 188.678 27.7897 188.574 28.1543C188.47 28.5189 188.418 28.9128 188.418 29.3359ZM207.451 24.4336V26.2891H201.396V24.4336H207.451ZM203.018 21.8359H205.605V31.9531C205.605 32.2656 205.648 32.5065 205.732 32.6758C205.817 32.8451 205.944 32.959 206.113 33.0176C206.283 33.0762 206.484 33.1055 206.719 33.1055C206.888 33.1055 207.044 33.0957 207.188 33.0762C207.331 33.0566 207.451 33.0371 207.549 33.0176L207.559 34.9512C207.344 35.0228 207.1 35.0814 206.826 35.127C206.559 35.1725 206.257 35.1953 205.918 35.1953C205.339 35.1953 204.831 35.0977 204.395 34.9023C203.958 34.7005 203.62 34.3783 203.379 33.9355C203.138 33.4863 203.018 32.8939 203.018 32.1582V21.8359ZM211.699 20V35H209.111V20H211.699ZM211.289 29.3359H210.527C210.527 28.6003 210.625 27.9232 210.82 27.3047C211.016 26.6862 211.292 26.1491 211.65 25.6934C212.008 25.2311 212.435 24.873 212.93 24.6191C213.431 24.3652 213.984 24.2383 214.59 24.2383C215.111 24.2383 215.583 24.3132 216.006 24.4629C216.436 24.6061 216.803 24.8372 217.109 25.1562C217.415 25.4753 217.65 25.8919 217.812 26.4062C217.982 26.9141 218.066 27.5326 218.066 28.2617V35H215.469V28.2422C215.469 27.7539 215.397 27.3698 215.254 27.0898C215.111 26.8034 214.906 26.5983 214.639 26.4746C214.378 26.3509 214.056 26.2891 213.672 26.2891C213.255 26.2891 212.897 26.3704 212.598 26.5332C212.298 26.6895 212.051 26.9076 211.855 27.1875C211.667 27.4674 211.523 27.7897 211.426 28.1543C211.335 28.5189 211.289 28.9128 211.289 29.3359ZM225.088 35.1953C224.287 35.1953 223.568 35.0651 222.93 34.8047C222.292 34.5443 221.748 34.1829 221.299 33.7207C220.856 33.252 220.514 32.7083 220.273 32.0898C220.039 31.4648 219.922 30.7943 219.922 30.0781V29.6875C219.922 28.8737 220.039 28.1348 220.273 27.4707C220.508 26.8001 220.84 26.224 221.27 25.7422C221.699 25.2604 222.214 24.8893 222.812 24.6289C223.411 24.3685 224.072 24.2383 224.795 24.2383C225.544 24.2383 226.204 24.3652 226.777 24.6191C227.35 24.8665 227.829 25.2181 228.213 25.6738C228.597 26.1296 228.887 26.6764 229.082 27.3145C229.277 27.946 229.375 28.6458 229.375 29.4141V30.498H221.094V28.7207H226.836V28.5254C226.823 28.1152 226.745 27.7409 226.602 27.4023C226.458 27.0573 226.237 26.7839 225.938 26.582C225.638 26.3737 225.251 26.2695 224.775 26.2695C224.391 26.2695 224.056 26.3542 223.77 26.5234C223.49 26.6862 223.255 26.9206 223.066 27.2266C222.884 27.526 222.747 27.8841 222.656 28.3008C222.565 28.7174 222.52 29.1797 222.52 29.6875V30.0781C222.52 30.5208 222.578 30.931 222.695 31.3086C222.819 31.6862 222.998 32.015 223.232 32.2949C223.473 32.5684 223.76 32.7832 224.092 32.9395C224.43 33.0892 224.814 33.1641 225.244 33.1641C225.785 33.1641 226.273 33.0599 226.709 32.8516C227.152 32.6367 227.536 32.321 227.861 31.9043L229.16 33.252C228.939 33.5775 228.639 33.89 228.262 34.1895C227.891 34.4889 227.441 34.7331 226.914 34.9219C226.387 35.1042 225.778 35.1953 225.088 35.1953Z" fill="#F8F8F8"/>
<path d="M59.994 71.9939C57.2803 74.6325 54.3173 74.2159 51.465 72.966C48.4467 71.6884 45.6775 71.6329 42.493 72.966C38.5054 74.688 36.4008 74.1881 34.0194 71.9939C20.5059 58.0235 22.4997 36.7484 37.8408 35.9707C41.5792 36.1651 44.1822 38.026 46.3698 38.1927C49.6374 37.5261 52.7665 35.6096 56.2557 35.8596C60.4371 36.1929 63.5939 37.8594 65.6708 40.859C57.031 46.0528 59.0802 57.468 67 60.662C65.4216 64.8282 63.3724 68.9665 59.9663 72.0217L59.994 71.9939ZM46.0929 35.8041C45.6775 29.6104 50.6897 24.4999 56.4495 24C57.2526 31.1658 49.9697 36.4984 46.0929 35.8041Z" fill="#F8F8F8"/>
</svg>
