<svg width="73" height="81" viewBox="0 0 73 81" fill="none" xmlns="http://www.w3.org/2000/svg">
<path d="M41.4 14.3C42.5404 14.3 43.6342 14.753 44.4406 15.5594C45.247 16.3658 45.7 17.4596 45.7 18.6V70.2C45.7 71.3404 45.247 72.4341 44.4406 73.2406C43.6342 74.047 42.5404 74.5 41.4 74.5H15.6C14.4596 74.5 13.3658 74.047 12.5594 73.2406C11.753 72.4341 11.3 71.3404 11.3 70.2V18.6C11.3 17.4596 11.753 16.3658 12.5594 15.5594C13.3658 14.753 14.4596 14.3 15.6 14.3H41.4ZM15.6 10C13.3191 10 11.1317 10.9061 9.51888 12.5189C7.90607 14.1317 7 16.3191 7 18.6V70.2C7 72.4809 7.90607 74.6683 9.51888 76.2811C11.1317 77.8939 13.3191 78.8 15.6 78.8H41.4C43.6809 78.8 45.8683 77.8939 47.4811 76.2811C49.0939 74.6683 50 72.4809 50 70.2V18.6C50 16.3191 49.0939 14.1317 47.4811 12.5189C45.8683 10.9061 43.6809 10 41.4 10H15.6Z" fill="#042959"/>
<path d="M28.5031 70.1996C29.6436 70.1996 30.7373 69.7466 31.5437 68.9402C32.3501 68.1338 32.8031 67.04 32.8031 65.8996C32.8031 64.7592 32.3501 63.6655 31.5437 62.8591C30.7373 62.0526 29.6436 61.5996 28.5031 61.5996C27.3627 61.5996 26.269 62.0526 25.4626 62.8591C24.6562 63.6655 24.2031 64.7592 24.2031 65.8996C24.2031 67.04 24.6562 68.1338 25.4626 68.9402C26.269 69.7466 27.3627 70.1996 28.5031 70.1996Z" fill="#042959"/>
<path d="M43.3362 54.8418C43.3362 54.8418 41.5333 54.9843 41.2929 55.3896C41.0497 55.7949 41.0358 56.4183 41.0358 57.1031C41.0358 57.7907 41.0078 59.3671 41.0078 59.3671L41.4383 60.2923C41.4383 60.2923 41.5193 72.085 41.5193 72.4511C41.5193 72.8145 41.5193 73.2589 42.0448 73.5412C42.5703 73.8235 55.9254 80.2747 56.3419 80.448C56.9708 80.708 57.2699 80.6101 57.2699 80.6101L72.1093 55.7921C72.1093 55.7921 72.0617 55.1129 71.444 54.9508C71.089 54.8614 43.3362 54.8418 43.3362 54.8418Z" fill="#F5B03E"/>
<path d="M57.1104 63C56.884 63.6233 56.9874 70.0689 57.0265 74.7563C57.0657 79.441 56.9063 80.4109 57.0265 80.573C57.1467 80.7351 57.4738 80.5786 58.3989 80.1677C60.118 79.4074 68.3748 75.321 68.9813 74.9576C69.5879 74.5942 71.0693 73.8423 71.3125 73.437C71.5556 73.0317 71.687 69.2611 71.7681 66.234C71.8491 63.204 71.9302 60.7807 71.9302 60.7807L72.2936 59.6906C72.2936 59.6906 72.2153 56.7445 72.2013 56.4203C72.1762 55.8836 72.1175 55.6069 71.9805 55.674C71.7848 55.7662 70.1525 57.1051 65.8312 59.207C63.1171 60.5235 57.2669 62.5696 57.1104 63Z" fill="#E07F14"/>
<path d="M57.1507 49.1057C55.9404 49.0498 52.6282 50.9645 49.4362 52.0126C46.2441 53.0608 41.4253 55.1683 41.3834 55.2913C41.3443 55.4115 43.3232 56.2976 44.5866 56.9041C46.0876 57.6225 51.8176 60.3365 52.8658 60.781C53.9168 61.2254 56.4212 62.2652 56.8237 62.2344C57.3883 62.1953 62.7214 60.0934 65.4271 58.802C68.1328 57.5107 71.5149 55.5093 71.5597 55.023C71.5792 54.805 66.5843 52.9406 64.0938 51.8142C59.2862 49.6368 58.0368 49.1476 57.1507 49.1057Z" fill="#FDD717"/>
<path d="M41.0224 59.884C41.0643 60.4095 41.3522 60.5968 42.0845 60.9154C42.8168 61.2341 56.6611 68.4259 56.9798 68.4259C57.2984 68.4259 57.3935 67.2855 57.0441 67.3163C56.854 67.333 52.3063 65.1724 48.0577 63.0146C44.452 61.1866 41 59.3613 41 59.3613L41.0224 59.884Z" fill="#E37D14"/>
<path d="M72.3017 59.666C72.3017 59.666 57.5182 67.1849 57.3729 67.2576C57.2276 67.3303 56.9956 67.3051 56.9956 67.3051L56.9844 68.426C56.9844 68.426 57.1213 68.4567 57.2751 68.4092C57.3645 68.3812 71.8741 60.8707 71.9383 60.8484C72.0026 60.826 72.2821 60.6583 72.3408 60.3033C72.3912 60.0182 72.3017 59.666 72.3017 59.666Z" fill="#BA5E0D"/>
<path d="M46.8145 73.2032L49.7075 77.5077L50.9737 77.941C50.9737 77.941 51.0771 73.2451 51.119 69.7652C51.1777 64.6809 51.1554 60.0437 51.228 59.781C51.3482 59.3366 56.9748 57.5113 56.9748 57.5113C56.9748 57.5113 63.331 59.5043 63.5322 59.9487C63.6217 60.1444 63.5518 63.437 63.5322 67.2747C63.5071 72.1215 63.5155 77.7174 63.5155 77.7174C63.5155 77.7174 64.1723 77.7146 64.2506 77.4714C64.3316 77.2282 64.6559 75.3527 64.6559 75.3527L67.1212 58.9201L68.3734 57.3045L66.6348 53.9951L59.5016 50.4844L57.0503 51.035L54.3977 50.6297L45.9844 56.6756L46.9655 58.6657L49.3721 59.8928L46.8145 73.2032Z" fill="#AF0F1B"/>
<path d="M64.2698 59.7772C64.1161 60.1154 64.2056 77.543 64.2056 77.543C64.2056 77.543 64.9742 77.1182 65.9637 76.643C66.9476 76.1706 67.6548 75.8771 67.7162 75.6312C67.7777 75.3852 67.8867 58.1504 67.8867 58.1504L64.2698 59.7772Z" fill="#DC0D28"/>
<path d="M50.3091 59.4176C50.4014 59.5182 50.2504 77.6027 50.0632 77.6446C49.915 77.681 46.5469 76.1772 46.5469 76.0235C46.5469 75.8697 46.818 58.5874 46.818 58.5874C46.818 58.5874 50.0352 59.1101 50.3091 59.4176ZM56.9839 49.9561C56.0531 49.9561 55.0245 50.2216 54.7254 51.0014C54.4264 51.7813 54.3593 52.9413 54.3593 53.8077C54.3593 54.6379 54.2251 56.7622 56.7827 56.7287C59.3402 56.6951 59.4157 55.7476 59.4548 53.6568C59.4883 51.9126 59.2563 51.0657 59.0244 50.7024C58.8175 50.3753 58.1299 49.9561 56.9839 49.9561Z" fill="#FF2A23"/>
<path d="M55.5055 54.2713C56.0869 54.3049 56.3357 53.0275 56.7829 52.3287C57.2301 51.6327 57.6969 51.1659 57.5292 50.8026C57.3923 50.5007 56.1764 50.4029 55.5195 51.3169C55.0583 51.9626 54.9773 54.2406 55.5055 54.2713Z" fill="#FCC9D2"/>
<path d="M59.2422 50.5622C59.2422 50.5622 60.0668 51.4007 60.282 53.0443C60.4972 54.6878 60.2484 55.9652 60.2484 55.9652C60.2484 55.9652 64.3461 55.8422 65.7604 56.1133C67.1552 56.3845 67.6416 56.9994 67.6416 57.4466C67.6416 57.8938 66.7248 58.2544 65.794 58.1873C64.8632 58.1203 64.2343 58.0699 64.1169 58.3047C63.9995 58.5395 64.1672 58.9029 65.4614 59.0007C66.7555 59.1013 68.2509 58.9169 68.7149 57.3069C69.1789 55.6969 69.1957 52.9073 69.0307 50.8976C68.8658 48.8879 68.5025 47.7391 67.6024 47.3031C66.6549 46.8475 64.2818 46.772 62.0401 48.0326C59.7984 49.2932 59.2422 50.5622 59.2422 50.5622Z" fill="#FF2A23"/>
<path d="M63.8926 48.6504C63.6019 48.2759 62.6656 48.287 62.1652 48.8656C61.6342 49.4806 61.5168 51.8201 62.1988 51.9543C62.9702 52.1052 62.8305 50.8418 63.3951 50.0619C63.9485 49.2989 64.1749 49.0166 63.8926 48.6504Z" fill="#FCC9D2"/>
<path d="M54.5114 50.6426C54.5114 50.6426 51.3724 46.9838 47.7863 47.0397C45.6284 47.0732 45.0806 48.3171 44.9632 48.8314C44.8458 49.3457 43.9514 54.4608 45.1449 57.2308C46.3384 60.0007 48.8149 59.2824 49.2034 59.1929C49.701 59.0755 50.7603 58.7122 50.6597 58.3292C50.5591 57.9463 47.04 59.3243 47.0064 57.7479C46.9729 56.1714 49.4969 56.0037 50.6597 55.9701C51.8225 55.9366 53.8154 56.2021 53.8154 56.2021C53.8154 56.2021 53.466 54.2931 53.698 52.9318C53.93 51.5706 54.5114 50.6426 54.5114 50.6426Z" fill="#FF2A23"/>
<path d="M46.8275 48.3675C46.3803 48.8315 46.1958 51.5065 46.4781 52.8342C46.7604 54.1618 47.0092 54.7265 47.5906 54.6119C48.0769 54.514 48.3704 51.909 48.6024 50.9922C48.8512 50.0139 49.4661 48.9741 49.2173 48.5185C48.8372 47.8197 47.2943 47.884 46.8275 48.3675Z" fill="#FCC9D2"/>
<circle cx="14.5" cy="14.5" r="14.5" fill="#D7B56D"/>
<path fill-rule="evenodd" clip-rule="evenodd" d="M14.5 7C14.3674 7 14.2402 7.05644 14.1465 7.1569C14.0527 7.25736 14.0001 7.39361 14.0001 7.53568L14.0001 20.1702L10.8545 16.7987C10.7606 16.6981 10.6333 16.6416 10.5006 16.6416C10.3678 16.6416 10.2405 16.6981 10.1466 16.7987C10.0527 16.8992 10 17.0357 10 17.1779C10 17.3202 10.0527 17.4566 10.1466 17.5572L14.146 21.8426C14.1925 21.8925 14.2477 21.9321 14.3084 21.9591C14.3691 21.9861 14.4342 22 14.5 22C14.5658 22 14.6309 21.9861 14.6916 21.9591C14.7523 21.9321 14.8075 21.8925 14.854 21.8426L18.8534 17.5572C18.8999 17.5074 18.9367 17.4483 18.9619 17.3832C18.9871 17.3181 19 17.2484 19 17.1779C19 17.0357 18.9473 16.8992 18.8534 16.7987C18.7595 16.6981 18.6322 16.6416 18.4994 16.6416C18.3667 16.6416 18.2394 16.6981 18.1455 16.7987L14.9999 20.1702L14.9999 7.53568C14.9999 7.39361 14.9473 7.25736 14.8535 7.1569C14.7597 7.05644 14.6326 7 14.5 7Z" fill="#042959"/>
</svg>
