<svg width="73" height="45" viewBox="0 0 73 45" fill="none" xmlns="http://www.w3.org/2000/svg">
<path d="M39.4761 0L39.1172 1.435H9.43391V4.2475H38.4141L37.2422 8.935H44.4381L43.2663 4.2475H72.2464V1.435H42.5631L42.2042 0H39.4761ZM0 9.2475L2.28438 22.9544L0.291094 28.935H2.75734L7.84297 23.8495L26.7683 26.5534L27.098 27.2122C28.2223 29.4606 29.9252 31.1663 31.6202 32.2963C33.3152 33.4259 35.0589 33.935 35.8402 33.935H55.8402C59.4339 33.935 63.0339 33.3134 65.5817 32.1811C66.8555 31.615 67.8545 30.9256 68.4927 30.1963C68.7652 29.8848 68.9717 29.5723 69.123 29.2475H44.913L37.413 11.7475H36.3089L26.3089 19.2475H7.47094L2.47094 9.2475H0ZM40.4727 11.7475L46.7673 26.435H53.7077L47.413 11.7475H40.4727ZM50.5039 11.8209L56.7673 26.435H69.1327C67.9181 21.0384 65.2327 17.5472 61.7691 15.2647C58.5388 13.1358 54.5711 12.0884 50.5039 11.8209ZM57.7734 36.6937C57.1316 36.7286 56.4859 36.7475 55.8402 36.7475H54.8264L56.3889 41.435H42.7914L44.3539 36.7475H41.3889L39.8264 41.435H26.9339V44.2475H66.3038L70.0569 41.4719L71.1875 40.6359L69.5152 38.3744L68.3844 39.2103L65.3766 41.435H59.3539L57.7734 36.6937Z" fill="#D7B56D"/>
</svg>
