<svg width="87" height="87" viewBox="0 0 87 87" fill="none" xmlns="http://www.w3.org/2000/svg">
<path d="M32.527 87L21.3015 65.7731L0 54.4227L5.81683 48.6292L24.3576 51.7869L40.7393 35.3799L0.445797 18.1553L7.90079 10.7318L56.9115 19.1504L73.6691 2.2647C75.173 0.7549 77.017 0 79.2013 0C81.3855 0 83.2295 0.7549 84.7334 2.2647C86.2445 3.7745 87 5.61782 87 7.79466C87 9.97149 86.2463 11.8148 84.7388 13.3246L67.8469 30.135L76.2579 79.1946L68.7707 86.6934L51.6425 46.3376L35.2608 62.7446L38.3384 81.1796L32.527 87Z" fill="#D7B56D"/>
</svg>
