<svg width="8" height="13" viewBox="0 0 8 13" fill="none" xmlns="http://www.w3.org/2000/svg">
<path d="M7.78973 11.4794L1.6421 6.78588C1.50727 6.68348 1.43164 6.54524 1.43164 6.40119C1.43164 6.25714 1.50727 6.1189 1.6421 6.01649L7.7884 1.32301C7.92316 1.21996 7.99867 1.08128 7.99867 0.936808C7.99867 0.79234 7.92316 0.653652 7.7884 0.55061C7.72256 0.49987 7.64388 0.459545 7.55698 0.432011C7.47009 0.404478 7.37673 0.390293 7.28243 0.390293C7.18812 0.390293 7.09477 0.404478 7.00787 0.432011C6.92097 0.459545 6.84229 0.49987 6.77646 0.55061L0.630156 5.24309C0.226279 5.55218 -2.45679e-07 5.96803 -2.29166e-07 6.40119C-2.12653e-07 6.83435 0.226279 7.2502 0.630156 7.55928L6.77646 12.2518C6.84231 12.3027 6.92108 12.3431 7.0081 12.3707C7.09512 12.3984 7.18863 12.4126 7.28309 12.4126C7.37756 12.4126 7.47107 12.3984 7.55809 12.3707C7.64511 12.3431 7.72388 12.3027 7.78973 12.2518C7.92449 12.1487 8 12.01 8 11.8656C8 11.7211 7.92449 11.5824 7.78973 11.4794Z" fill="#042959"/>
</svg>
