<svg width="6" height="13" viewBox="0 0 6 13" fill="none" xmlns="http://www.w3.org/2000/svg">
<path d="M0.157703 1.32336L4.76843 6.01685C4.86955 6.11926 4.92627 6.25749 4.92627 6.40155C4.92627 6.5456 4.86955 6.68383 4.76843 6.78624L0.158703 11.4797C0.0576334 11.5828 0.00100043 11.7215 0.00100042 11.8659C0.00100042 12.0104 0.0576334 12.1491 0.158703 12.2521C0.208077 12.3029 0.267089 12.3432 0.332262 12.3707C0.397435 12.3983 0.46745 12.4124 0.53818 12.4124C0.608911 12.4124 0.678925 12.3983 0.744098 12.3707C0.809271 12.3432 0.868283 12.3029 0.917657 12.2521L5.52738 7.55964C5.83029 7.25056 6 6.83471 6 6.40155C6 5.96839 5.83029 5.55253 5.52738 5.24345L0.917658 0.550968C0.868268 0.500074 0.809194 0.459619 0.743929 0.431994C0.678663 0.40437 0.608531 0.390136 0.537681 0.390136C0.466829 0.390136 0.396698 0.40437 0.331433 0.431994C0.266168 0.459619 0.207093 0.500074 0.157703 0.550968C0.0566335 0.65401 4.60737e-07 0.792699 4.54959e-07 0.937166C4.49181e-07 1.08163 0.0566334 1.22032 0.157703 1.32336Z" fill="#042959"/>
</svg>
